<?xml version="1.0" encoding="UTF-8" standalone="no"?>
<!--
    Заставка при запуске — тот же Чудик, что и в иконке (Resources/AppIcon/appiconfg.svg),
    один в один. Фон здесь прозрачный намеренно: его кладёт MauiSplashScreen из csproj
    через Color, а BaseSize там масштабирует этот холст.
-->
<svg width="456" height="456" viewBox="0 0 456 456" version="1.1" xmlns="http://www.w3.org/2000/svg">
    <path fill="#FFFFFF" fill-rule="evenodd" d="
        M144 104 H312 A56 56 0 0 1 368 160 V264 A56 56 0 0 1 312 320 H206 L124 364 L146 320 H144 A56 56 0 0 1 88 264 V160 A56 56 0 0 1 144 104 Z
        M156 196 a16 16 0 1 0 32 0 a16 16 0 1 0 -32 0 Z
        M238 202 a30 30 0 1 0 60 0 a30 30 0 1 0 -60 0 Z
        M166 254 Q228 302 290 240 Q232 272 166 254 Z
        M148 168 Q172 146 196 168 Q172 166 148 168 Z
    " />
</svg>
